<?xml version="1.0" standalone="no"?>
<!DOCTYPE svg PUBLIC "-//W3C//DTD SVG 20010904//EN"
 "http://www.w3.org/TR/2001/REC-SVG-20010904/DTD/svg10.dtd">
<svg version="1.0" xmlns="http://www.w3.org/2000/svg"
 width="800.000000pt" height="800.000000pt" viewBox="0 0 800.000000 800.000000"
 preserveAspectRatio="xMidYMid meet">
<metadata>
Created by potrace 1.11, written by Peter Selinger 2001-2013
</metadata>
<g transform="translate(0.000000,800.000000) scale(0.100000,-0.100000)"
fill="#000000" stroke="none">
<path d="M3275 7649 c-156 -37 -351 -138 -472 -247 -55 -49 -79 -67 -138 -104
-223 -139 -348 -259 -432 -418 -45 -84 -55 -119 -80 -292 -3 -22 -17 -50 -32
-67 -28 -30 -125 -188 -127 -206 0 -5 -8 -27 -17 -48 -9 -22 -22 -57 -29 -79
-11 -39 -40 -67 -148 -148 -61 -46 -145 -109 -155 -118 -5 -4 -26 -19 -45 -32
-19 -14 -39 -31 -43 -37 -4 -7 -12 -13 -17 -13 -6 0 -18 -8 -28 -17 -10 -10
-31 -28 -47 -40 -17 -13 -48 -37 -70 -54 -22 -17 -53 -40 -68 -52 -16 -12 -54
-42 -86 -67 -32 -25 -75 -58 -96 -75 -22 -16 -68 -54 -104 -82 -37 -29 -77
-61 -91 -72 -97 -76 -198 -159 -217 -178 -12 -13 -27 -23 -33 -23 -5 0 -10 -4
-10 -10 0 -5 -4 -10 -10 -10 -5 0 -19 -10 -32 -22 -13 -13 -41 -36 -62 -53
-22 -16 -55 -44 -75 -62 -20 -17 -106 -86 -191 -153 -85 -66 -167 -131 -182
-143 -21 -17 -29 -34 -33 -72 -3 -27 -8 -63 -11 -78 -5 -26 -4 -28 13 -19 10
6 38 28 63 49 25 21 65 54 90 73 25 19 47 37 50 40 3 3 46 37 95 75 50 38 97
75 105 82 21 19 244 191 315 243 33 24 69 53 80 63 11 10 41 32 68 49 26 17
47 35 47 40 0 4 5 8 10 8 6 0 20 9 32 20 12 11 40 32 62 47 23 15 54 40 70 55
16 15 33 25 38 22 4 -3 8 -1 8 4 0 5 37 35 83 68 45 32 89 64 97 71 8 7 62 47
120 90 58 42 107 80 110 83 3 4 34 26 70 50 36 24 73 51 82 60 9 8 31 23 48
33 l31 18 -6 -29 c-5 -31 -14 -148 -15 -217 -1 -22 1 -87 4 -145 6 -114 3
-122 -49 -156 -16 -10 -36 -27 -43 -36 -7 -10 -17 -18 -22 -18 -5 0 -22 -11
-37 -25 -16 -14 -116 -95 -223 -181 -107 -86 -196 -160 -198 -165 -2 -5 -10
-9 -17 -9 -7 0 -15 -3 -17 -7 -1 -5 -59 -53 -128 -108 -69 -55 -129 -105 -135
-111 -5 -6 -30 -26 -55 -45 -76 -57 -100 -77 -147 -120 -18 -16 -37 -29 -42
-29 -5 0 -11 -3 -13 -8 -2 -4 -30 -30 -63 -57 -33 -28 -62 -52 -65 -55 -3 -3
-34 -29 -70 -58 -63 -51 -134 -111 -169 -142 -9 -8 -39 -33 -66 -54 -28 -22
-57 -47 -66 -55 -9 -9 -34 -30 -55 -48 -22 -17 -49 -39 -60 -50 -12 -10 -45
-37 -72 -61 -28 -24 -49 -48 -47 -55 2 -7 6 -30 9 -52 10 -84 78 -329 108
-392 6 -13 9 -26 5 -29 -3 -4 -2 -15 4 -26 12 -23 18 -44 31 -123 6 -33 12
-61 13 -63 3 -4 62 27 116 61 100 63 182 113 202 125 12 7 42 26 67 42 25 16
92 56 150 89 58 34 128 75 155 91 28 17 59 35 70 40 11 6 27 14 35 20 45 29
273 160 280 160 5 0 10 3 12 8 2 4 28 20 58 36 30 16 62 34 70 41 8 7 35 23
60 35 25 13 48 28 52 34 4 6 8 7 8 3 0 -5 12 1 26 12 15 12 31 21 37 21 6 0
25 11 43 25 18 14 35 25 38 25 3 0 54 29 113 64 227 134 293 169 294 159 0 -5
2 -17 4 -28 2 -11 5 -43 8 -72 3 -29 9 -57 12 -63 4 -7 -1 -19 -11 -29 -19
-16 -127 -91 -204 -141 -21 -14 -68 -46 -105 -72 -36 -27 -70 -48 -75 -48 -4
0 -10 -4 -12 -8 -1 -5 -30 -26 -63 -47 -33 -22 -62 -42 -65 -45 -3 -3 -22 -16
-43 -29 -21 -13 -43 -28 -50 -35 -6 -6 -32 -24 -57 -38 -25 -15 -54 -34 -65
-42 -11 -9 -45 -32 -75 -53 -54 -35 -167 -113 -262 -180 -26 -18 -52 -33 -57
-33 -5 0 -11 -4 -13 -8 -3 -9 -91 -70 -166 -116 -26 -15 -49 -32 -52 -36 -3
-4 -18 -15 -35 -24 -16 -9 -42 -24 -57 -34 -137 -89 -290 -184 -349 -218 -40
-22 -76 -47 -80 -55 -6 -13 -26 -103 -33 -154 -2 -11 -4 -20 -5 -20 -2 0 -4
-7 -6 -15 -5 -25 -52 -163 -68 -200 -8 -19 -15 -37 -15 -40 -1 -3 -3 -12 -6
-20 -38 -109 -43 -136 -40 -208 1 -42 5 -90 7 -107 3 -16 8 -59 12 -95 8 -72
61 -319 77 -359 6 -14 13 -34 15 -44 4 -25 64 -167 69 -167 5 0 198 143 240
178 12 9 47 35 78 57 31 22 56 43 56 47 0 4 5 8 10 8 6 0 57 35 114 78 57 42
115 84 128 94 12 9 60 44 106 77 45 34 86 61 91 61 5 0 11 4 13 8 2 4 50 41
107 82 57 41 117 83 133 94 15 12 74 53 131 91 56 39 104 72 107 76 3 3 41 30
85 60 44 31 132 91 195 135 227 158 280 194 289 194 5 0 11 4 13 9 3 8 95 73
202 143 23 14 46 30 51 35 23 19 125 83 132 83 5 -1 25 -27 46 -59 21 -32 58
-79 83 -104 48 -49 133 -202 140 -254 3 -27 -3 -38 -56 -89 -34 -32 -73 -63
-88 -70 -15 -6 -47 -20 -72 -32 -105 -47 -91 -42 -550 -194 -318 -105 -523
-195 -678 -299 -24 -16 -47 -29 -52 -29 -4 0 -10 -4 -12 -8 -1 -5 -21 -22 -43
-38 -149 -109 -254 -231 -404 -474 -104 -168 -169 -291 -213 -410 -36 -94 -38
-120 -12 -120 8 0 26 -7 39 -16 14 -9 25 -13 25 -10 0 4 11 -1 25 -10 14 -9
25 -14 25 -11 0 3 28 -7 63 -22 34 -16 132 -52 217 -81 85 -29 162 -55 170
-58 8 -3 20 -6 25 -8 6 -2 48 -15 95 -29 47 -15 96 -28 110 -31 14 -3 34 -8
45 -11 11 -4 25 -8 30 -9 6 -1 39 -10 75 -19 78 -20 76 -20 170 -40 41 -9 93
-21 115 -27 22 -6 51 -12 65 -13 14 -2 50 -9 80 -15 59 -12 73 -15 135 -24 22
-3 51 -8 65 -11 14 -3 48 -8 75 -11 28 -3 57 -7 65 -10 10 -3 12 -2 5 5 -5 5
-44 23 -86 40 -187 74 -425 201 -554 297 -101 75 -122 93 -183 154 -88 90
-150 192 -132 220 9 15 60 16 87 2 10 -6 21 -10 26 -11 4 0 21 -8 37 -16 16
-8 31 -15 32 -15 5 2 316 -138 397 -178 19 -9 35 -16 35 -14 1 2 30 -10 66
-26 36 -16 121 -48 190 -72 69 -23 132 -45 140 -48 18 -6 13 -5 70 -22 54 -16
34 -11 200 -54 74 -19 147 -37 163 -40 15 -3 35 -7 45 -10 23 -7 304 -54 367
-61 28 -3 64 -8 80 -11 17 -3 55 -7 85 -9 30 -2 98 -7 150 -11 278 -23 759 1
1035 51 17 3 48 8 70 11 22 3 56 9 75 14 19 5 55 12 80 15 25 3 52 7 60 10 8
2 30 7 49 10 19 3 37 8 41 10 3 2 30 6 60 10 30 3 73 10 95 15 22 5 60 12 85
15 50 8 67 10 125 19 22 3 49 7 60 10 11 2 40 7 65 11 40 6 321 61 360 70 8 2
44 10 80 18 36 8 85 20 110 26 187 44 230 53 284 57 33 3 67 7 74 9 24 8 11
-17 -30 -56 -23 -21 -77 -63 -120 -93 -43 -29 -75 -55 -72 -58 3 -3 55 5 117
18 62 13 123 26 137 29 35 6 247 53 295 65 22 5 51 12 65 14 14 2 43 9 65 14
22 6 51 13 65 16 14 2 48 10 75 16 28 6 59 14 70 16 11 3 31 7 45 10 14 3 30
7 35 8 6 2 21 6 35 9 14 4 93 22 175 42 238 57 320 77 323 80 1 1 -5 24 -13
51 -21 70 -21 71 31 68 42 -3 48 0 92 44 75 76 169 198 205 268 16 31 49 163
63 249 9 61 10 69 13 75 5 13 12 128 15 246 2 129 -1 149 -39 261 -3 9 -14 4
-33 -15 -16 -15 -49 -44 -73 -66 -24 -21 -80 -71 -123 -110 -43 -39 -96 -84
-117 -101 -22 -16 -39 -33 -39 -37 0 -4 -5 -8 -10 -8 -6 0 -21 -10 -34 -22
-13 -13 -36 -32 -51 -43 -15 -11 -42 -33 -59 -48 -17 -16 -56 -47 -86 -70 -30
-23 -58 -46 -61 -50 -5 -7 -53 26 -79 53 -3 3 -24 18 -47 33 -24 15 -43 31
-43 35 0 4 37 39 81 77 45 39 96 84 114 100 19 17 53 46 76 65 24 19 51 43 61
53 10 9 20 17 24 17 3 0 19 14 37 30 18 17 71 60 120 97 48 37 87 70 87 75 0
4 7 8 15 8 8 0 15 4 15 8 0 5 10 14 23 19 12 6 36 23 52 37 17 14 43 36 59 49
l29 23 -16 50 c-9 27 -19 65 -22 84 -4 19 -12 40 -17 47 -5 7 -7 17 -3 23 3 5
2 10 -4 10 -6 0 -41 -30 -79 -67 -63 -64 -171 -163 -286 -265 -27 -23 -61 -54
-75 -67 -14 -13 -48 -42 -75 -65 -27 -22 -86 -72 -131 -111 -46 -38 -97 -81
-115 -95 -17 -14 -44 -35 -58 -48 -62 -54 -68 -56 -104 -30 -18 13 -35 26 -38
29 -9 10 -147 86 -224 124 l-76 37 28 22 c15 12 43 33 62 46 19 14 40 28 45
32 6 5 35 25 65 45 30 20 57 40 58 45 2 4 10 8 18 8 8 0 14 5 14 10 0 6 7 10
15 10 8 0 15 5 15 10 0 6 7 10 15 10 8 0 15 3 15 8 0 4 23 21 50 37 27 17 50
33 50 38 0 4 7 7 15 7 7 0 18 6 22 14 4 7 18 19 31 25 13 7 31 19 40 26 15 12
65 49 220 157 18 13 39 29 47 36 7 6 18 12 23 12 6 0 12 3 14 8 4 9 118 92
248 180 120 82 113 75 116 119 2 33 9 93 19 158 1 11 8 40 15 65 7 25 14 52
15 60 2 8 15 63 29 121 15 59 29 128 31 154 3 26 7 50 10 55 3 4 7 23 9 41 3
19 7 54 11 79 11 88 6 335 -10 485 -11 104 -26 205 -30 205 -4 0 -133 -88
-150 -103 -5 -5 -75 -55 -155 -112 -80 -58 -149 -108 -155 -112 -24 -19 -213
-152 -240 -169 -16 -10 -34 -23 -40 -27 -5 -5 -68 -49 -140 -97 -71 -49 -135
-93 -141 -98 -5 -5 -30 -22 -55 -38 -24 -16 -46 -31 -49 -34 -3 -3 -36 -26
-75 -51 -95 -61 -99 -64 -269 -179 -83 -55 -154 -100 -158 -100 -4 0 -8 -4 -8
-10 0 -5 -4 -10 -10 -10 -8 0 -98 -57 -110 -70 -3 -3 -99 -69 -215 -145 -115
-77 -214 -143 -220 -148 -5 -4 -57 -39 -115 -77 -135 -90 -138 -92 -165 -112
-13 -10 -28 -18 -33 -18 -6 0 -12 -4 -14 -8 -4 -10 -152 -112 -162 -112 -4 0
-14 -7 -23 -15 -13 -14 -18 -12 -41 14 -80 86 -84 94 -53 111 11 5 25 16 33
23 7 7 85 67 173 132 191 143 173 130 210 160 17 14 38 28 48 31 9 3 17 9 17
13 0 5 17 20 39 34 21 14 51 37 66 51 15 14 32 26 37 26 5 0 21 11 36 25 39
36 89 75 96 75 3 0 15 8 25 18 10 9 50 39 87 67 38 27 76 56 85 65 9 8 27 22
39 30 13 8 64 45 114 82 50 37 100 74 111 82 101 75 135 100 164 126 19 17 39
30 44 30 5 0 20 11 33 25 13 14 26 25 30 25 4 0 55 35 113 78 58 42 123 88
143 102 21 14 38 28 38 33 0 4 7 7 15 7 9 0 18 7 21 15 4 8 12 15 19 15 6 0
20 9 30 20 10 11 24 20 31 20 7 0 14 3 16 8 2 4 30 25 63 47 33 22 62 43 65
46 3 4 79 57 170 118 91 61 172 115 180 121 8 6 67 44 130 85 63 41 120 78
125 83 6 5 15 11 20 13 6 2 27 15 48 28 l38 24 -6 86 c-12 168 -2 329 30 481
3 14 8 40 11 59 6 37 11 60 20 94 14 52 11 113 -7 180 -10 40 -21 80 -24 91
-2 10 -16 33 -30 51 -14 19 -25 38 -25 44 0 6 -4 11 -8 11 -5 0 -17 18 -27 40
-35 77 -24 80 -193 -58 -19 -15 -39 -29 -45 -31 -7 -2 -14 -7 -17 -11 -9 -13
-304 -232 -327 -243 -13 -6 -23 -14 -23 -18 0 -4 -22 -21 -49 -38 -26 -17 -61
-43 -77 -56 -16 -14 -35 -25 -41 -25 -7 0 -13 -4 -13 -10 0 -5 -7 -10 -15 -10
-8 0 -15 -3 -15 -7 -1 -5 -22 -23 -48 -41 -160 -111 -294 -202 -298 -202 -3 0
-14 -9 -26 -20 -12 -11 -28 -20 -35 -20 -7 0 -13 -5 -13 -10 0 -6 -8 -14 -17
-18 -23 -9 -103 -62 -127 -84 -11 -10 -26 -18 -33 -18 -7 0 -13 -3 -13 -8 0
-4 -16 -16 -35 -26 -19 -11 -35 -23 -35 -28 0 -4 -6 -8 -13 -8 -7 0 -31 -13
-53 -30 -21 -16 -44 -30 -51 -30 -6 0 -13 -4 -15 -9 -1 -5 -39 -32 -83 -60
-44 -28 -87 -56 -95 -62 -134 -89 -334 -219 -339 -219 -3 0 -20 -12 -36 -27
-16 -16 -30 -26 -30 -24 0 6 -120 -72 -123 -81 -2 -4 -8 -8 -14 -8 -11 0 -101
-61 -106 -72 -2 -5 -8 -8 -13 -8 -12 0 -183 -112 -187 -122 -2 -5 -10 -8 -17
-8 -8 0 -18 -6 -22 -12 -4 -7 -18 -19 -31 -26 -22 -12 -22 -12 -20 43 3 54 4
57 45 81 102 59 135 159 137 410 1 145 4 173 18 187 9 10 19 17 21 17 8 0 162
92 167 100 3 4 10 9 15 11 10 4 88 50 243 145 41 24 77 44 82 44 5 0 10 3 12
8 4 8 85 62 94 62 3 0 26 14 51 30 24 17 47 30 50 30 4 0 15 7 25 17 20 18 32
25 102 62 25 14 46 28 46 32 0 4 12 12 28 18 15 6 47 25 72 41 25 17 53 33 63
36 9 4 17 10 17 15 0 5 7 9 15 9 8 0 15 5 15 10 0 6 4 10 9 10 5 0 45 22 88
50 43 27 96 59 117 71 21 11 44 25 50 30 27 24 235 156 239 153 2 -2 12 5 22
16 10 11 24 20 32 20 7 0 13 5 13 10 0 6 4 10 9 10 12 0 315 201 319 212 2 4
8 8 14 8 11 0 101 61 106 73 2 4 11 7 20 7 46 0 -92 54 -155 61 -5 1 -15 5
-24 10 -9 5 -36 11 -59 14 -23 3 -45 7 -49 9 -3 2 -24 7 -46 10 -31 4 -49 0
-80 -19 -22 -14 -49 -29 -60 -34 -11 -5 -30 -19 -42 -30 -12 -12 -29 -21 -37
-21 -8 0 -17 -4 -21 -9 -3 -5 -24 -20 -48 -34 -210 -119 -270 -154 -319 -183
-31 -19 -59 -34 -63 -34 -4 0 -19 -8 -33 -19 -15 -10 -56 -34 -92 -53 -36 -20
-96 -52 -135 -73 -38 -21 -90 -50 -115 -63 -25 -13 -63 -34 -85 -47 -22 -12
-74 -41 -115 -62 -41 -22 -106 -57 -145 -78 -208 -113 -276 -150 -330 -179
-33 -18 -70 -39 -82 -46 -12 -8 -25 -12 -28 -9 -3 3 4 41 15 84 11 43 20 87
20 97 0 11 7 26 15 34 8 9 15 13 15 10 0 -5 142 78 210 122 14 9 27 17 30 17
3 0 30 16 60 36 30 19 71 44 90 55 19 10 37 22 40 25 3 3 10 8 15 10 23 9 210
124 213 131 2 5 8 8 13 8 12 0 207 116 232 138 9 8 17 12 17 7 0 -4 6 -3 13 3
19 16 259 152 269 152 4 0 8 5 8 10 0 6 7 10 15 10 8 0 15 5 15 12 0 6 3 9 6
5 3 -3 24 5 45 19 21 13 44 24 51 24 10 0 10 3 -1 9 -7 5 -46 7 -85 5 -95 -5
-200 -13 -206 -15 -3 -1 -9 -1 -13 0 -4 1 -38 -4 -75 -10 -37 -6 -80 -13 -97
-15 -16 -2 -55 -9 -85 -14 -166 -31 -605 -39 -739 -14 -39 8 -84 12 -99 10
-26 -3 -30 1 -51 58 -29 79 -96 212 -130 256 -15 19 -46 76 -71 125 -51 104
-195 351 -210 360 -6 4 -8 16 -4 27 3 11 2 18 -3 15 -5 -3 -8 6 -7 21 0 14 -5
37 -12 51 -6 14 -20 44 -30 66 -22 47 -120 149 -184 192 -25 17 -73 42 -107
58 -34 15 -61 32 -60 37 3 16 -124 80 -185 94 -5 1 -9 3 -10 4 -2 1 -12 4 -23
5 -11 1 -38 7 -60 13 -22 6 -67 14 -100 17 -85 8 -155 16 -179 21 -53 10 -143
27 -166 31 -57 9 -338 11 -375 2z"/>
<path d="M1970 6295 c-7 -9 -11 -17 -9 -20 3 -2 10 5 17 15 14 24 10 26 -8 5z"/>
<path d="M1050 6184 c-154 -14 -201 -20 -262 -33 -24 -6 -55 -12 -69 -14 -51
-10 -126 -38 -264 -102 -109 -50 -283 -258 -395 -472 -17 -31 -19 -97 -5 -153
6 -24 33 -179 40 -230 2 -14 4 -25 5 -25 2 0 7 -70 10 -142 2 -35 6 -63 9 -63
3 0 18 10 34 23 15 12 44 35 65 50 86 64 150 113 189 144 23 19 44 33 45 31 3
-2 37 24 63 50 8 6 16 12 20 12 3 0 11 5 18 11 7 5 46 35 87 64 41 30 80 58
85 63 6 4 39 28 75 53 36 25 96 68 133 95 38 27 76 54 85 59 9 6 25 18 36 27
11 10 28 20 38 24 10 3 18 10 18 15 0 5 5 9 10 9 10 0 22 8 55 38 7 6 16 12
19 12 3 0 25 15 49 33 50 37 39 29 219 147 75 50 141 90 147 90 6 0 11 5 11
10 0 6 10 15 23 20 28 12 57 31 76 49 8 8 29 20 46 28 37 18 112 62 105 63
-147 24 -619 32 -820 14z"/>
</g>
</svg>
